<?xml version="1.0" encoding="utf-8"?>
<!-- Generator: Adobe Illustrator 23.0.0, SVG Export Plug-In . SVG Version: 6.00 Build 0)  -->
<svg version="1.1" id="Layer_1" xmlns="http://www.w3.org/2000/svg" xmlns:xlink="http://www.w3.org/1999/xlink" x="0px" y="0px"
     viewBox="0 0 566.9 566.9" style="enable-background:new 0 0 566.9 566.9;" xml:space="preserve">
<style type="text/css">
	.finwa-logo{fill:#ffffff;}
</style>
  <path class="finwa-logo" d="M284,9C132.1,9,9,132.1,9,283.9s123.1,275,275,275s275-123.1,275-275S435.8,9,284,9z M469.1,160.3l-82,205.9
	l0,0l-27.6,69.2h-10.3c-9.2,0-16.5-1.1-21.9-3.2c-5.4-2.2-9.7-6-12.8-11.6c-3.1-5.6-5.6-14-7.4-25.1l-9.1-61.8l-31.2,61.8
	c-5.1,10.2-10.1,18.1-15,23.8c-4.9,5.7-10.6,9.8-17.1,12.4c-6.5,2.5-14.5,3.8-24.1,3.8h-10.3l-9.5-179.7h-66.1l-14.7,83.5H75.4
	l25.3-142.6c3.7-20.8,12-36.5,24.7-47.2c12.7-10.7,31.5-16,56.2-16h70.9l-4.7,27.4h-69.4c-11.8,0-21.3,2.7-28.7,8.2
	c-7.4,5.5-12.1,14.7-14.3,27.6l-5.6,32.1h92.3l-0.2,0.9h0.2l8.8,173.5c2.9-2.4,6.1-6.9,9.4-13.5l71.5-135.9l23.5,135.9
	c1.4,6.9,2.9,11.4,4.7,13.5l70-176.5h0.1l26.3-66.2h-22l48.7-25.3l24.3,25.3H469.1z"/>
</svg>
